<?xml version="1.0" encoding="UTF-8"?>
<svg width="18px" height="14px" viewBox="0 0 18 14" version="1.1" xmlns="http://www.w3.org/2000/svg" xmlns:xlink="http://www.w3.org/1999/xlink">
    <!-- Generator: Sketch 47.1 (45422) - http://www.bohemiancoding.com/sketch -->
    <title>Group 7</title>
    <desc>Created with Sketch.</desc>
    <defs></defs>
    <g id="Visual-Designs" stroke="none" stroke-width="1" fill="none" fill-rule="evenodd">
        <g id="checkout" transform="translate(-23.000000, -18.000000)">
            <g id="Group-7" transform="translate(20.000000, 13.000000)">
                <g id="Group">
                    <g id="Group-9">
                        <polygon id="Shape" points="0 0 24 0 24 24 0 24"></polygon>
                        <g id="Group-2" transform="translate(3.000000, 5.000000)" fill-rule="nonzero" fill="#000000">
                            <path d="M17.2728984,6.26881818 L0.727101562,6.26881818 C0.325546875,6.26881818 0,6.59619192 0,7 C0,7.40384343 0.325546875,7.73118182 0.727101562,7.73118182 L17.2728984,7.73118182 C17.6744883,7.73118182 18,7.40384343 18,7 C18,6.59619192 17.6744883,6.26881818 17.2728984,6.26881818 Z" id="Shape"></path>
                            <path d="M1.75542187,7 L7.44591797,1.27753535 C7.729875,0.991984848 7.729875,0.529030303 7.44591797,0.243479798 C7.16196094,-0.0420353535 6.70158984,-0.0420353535 6.41763281,0.243479798 L0.212976562,6.48295455 C-0.0709804688,6.76850505 -0.0709804688,7.2314596 0.212976562,7.5170101 L6.41763281,13.7564848 C6.55959375,13.8992778 6.74571094,13.9706566 6.93179297,13.9706566 C7.117875,13.9706566 7.30399219,13.8992778 7.44595312,13.7564848 C7.72991016,13.4709343 7.72991016,13.0079798 7.44595312,12.7224293 L1.75542187,7 Z" id="Shape"></path>
                        </g>
                    </g>
                </g>
            </g>
        </g>
    </g>
</svg>