<?xml version="1.0" encoding="UTF-8"?>
<svg width="18px" height="12px" viewBox="0 0 18 12" version="1.1" xmlns="http://www.w3.org/2000/svg" xmlns:xlink="http://www.w3.org/1999/xlink">
    <!-- Generator: Sketch 47.1 (45422) - http://www.bohemiancoding.com/sketch -->
    <title>Group 7</title>
    <desc>Created with Sketch.</desc>
    <defs></defs>
    <g id="Page-1" stroke="none" stroke-width="1" fill="none" fill-rule="evenodd">
        <g id="Mobile" transform="translate(-23.000000, -20.000000)">
            <g id="Group-7" transform="translate(20.000000, 14.000000)">
                <g id="Group">
                    <g id="Group-9">
                        <g id="Group-8" transform="translate(3.000000, 6.000000)" fill-rule="nonzero" fill="#000000">
                            <path d="M0.75,2 L17.25,2 C17.6956981,2 18,1.552 18,1 C18,0.448 17.6956981,0 17.25,0 L0.75,0 C0.304301887,0 0,0.448 0,1 C0,1.552 0.304301887,2 0.75,2 Z" id="Shape"></path>
                            <path d="M0.75,7 L17.25,7 C17.6956981,7 18,6.552 18,6 C18,5.448 17.6956981,5 17.25,5 L0.75,5 C0.304301887,5 0,5.448 0,6 C0,6.552 0.304301887,7 0.75,7 Z" id="Shape"></path>
                            <path d="M0.75,12 L17.25,12 C17.6956981,12 18,11.552 18,11 C18,10.448 17.6956981,10 17.25,10 L0.75,10 C0.304301887,10 0,10.448 0,11 C0,11.552 0.304301887,12 0.75,12 Z" id="Shape"></path>
                        </g>
                        <polygon id="Shape" points="0 0 24 0 24 24 0 24"></polygon>
                    </g>
                </g>
            </g>
        </g>
    </g>
</svg>