<?xml version="1.0" encoding="UTF-8"?>
<svg width="24px" height="24px" viewBox="0 0 24 24" version="1.1" xmlns="http://www.w3.org/2000/svg" xmlns:xlink="http://www.w3.org/1999/xlink">
    <!-- Generator: Sketch 47.1 (45422) - http://www.bohemiancoding.com/sketch -->
    <title>Group 4</title>
    <desc>Created with Sketch.</desc>
    <defs></defs>
    <g id="Page-1" stroke="none" stroke-width="1" fill="none" fill-rule="evenodd">
        <g id="Mobile" transform="translate(-276.000000, -14.000000)">
            <g id="Group-4" transform="translate(276.000000, 14.000000)">
                <rect id="Rectangle-10" fill="#FFFFFF" x="0" y="0" width="24" height="24" rx="5"></rect>
                <g id="flaticon1509548702-svg" transform="translate(4.000000, 5.000000)" fill-rule="nonzero" fill="#767676">
                    <path d="M0.591304348,1.22838517 L2.28636522,1.22838517 L4.70086957,10.2367464 C4.76984348,10.5011124 5.00636522,10.6841268 5.27245217,10.6841268 L12.6933217,10.6841268 C12.9298435,10.6841268 13.1368,10.5417703 13.2353391,10.3180981 L15.9356174,3.91259569 C16.0144696,3.71942584 15.9947478,3.50590909 15.8863304,3.33305024 C15.777913,3.16019139 15.5906783,3.05852871 15.3935652,3.05852871 L7.1941913,3.05852871 C6.86897391,3.05852871 6.60288696,3.33305024 6.60288696,3.66857656 C6.60288696,4.00410287 6.86897391,4.2786244 7.1941913,4.2786244 L14.4869565,4.2786244 L12.2991304,9.4640311 L5.71593043,9.4640311 L3.30146087,0.455669856 C3.23248696,0.191303828 2.99596522,0.00828947368 2.72987826,0.00828947368 L0.591304348,0.00828947368 C0.266086957,0.00828947368 0,0.282811005 0,0.618337321 C0,0.953863636 0.266086957,1.22838517 0.591304348,1.22838517 Z" id="Shape"></path>
                    <path d="M4.71071304,14.9748086 C5.44984348,14.9748086 6.0509913,14.3546053 6.0509913,13.5920455 C6.0509913,12.8294856 5.44984348,12.2092823 4.71071304,12.2092823 C3.97158261,12.2092823 3.37043478,12.8294498 3.37043478,13.5920096 C3.37043478,14.3545694 3.97158261,14.9748086 4.71071304,14.9748086 Z" id="Shape"></path>
                    <path d="M13.0875478,14.9748086 C13.117113,14.9748086 13.1565217,14.9748086 13.186087,14.9748086 C13.5408696,14.9443062 13.866087,14.7816388 14.1026087,14.4969258 C14.3391304,14.2224043 14.4475478,13.8665311 14.4278261,13.4903469 C14.3785391,12.7379426 13.7379826,12.1583971 12.9988522,12.2092464 C12.2597217,12.2600957 11.7078261,12.9311483 11.757113,13.6835167 C11.8063652,14.4054187 12.3878261,14.9748086 13.0875478,14.9748086 Z" id="Shape"></path>
                </g>
            </g>
        </g>
    </g>
</svg>